PathFileType	4	(X/Y/Z)	3_coords_data.trc
DataRate	CameraRate	NumFrames	NumMarkers	Units	OrigDataRate	OrigDataStartFrame	OrigNumFrames
30.0	30.0	9	21	m	30.0	1	63
Frame#	Time	THUMB_TIP	THUMB_IP	THUMB_MCP	THUMB_CMC	INDEX_TIP	INDEX_DIP	INDEX_PIP	INDEX_MCP	MIDDLE_TIP	MIDDLE_DIP	MIDDLE_PIP	MIDDLE_MCP	RING_TIP	RING_DIP	RING_PIP	RING_MCP	PINKY_TIP	PINKY_DIP	PINKY_PIP	PINKY_MCP	WRIST
X1	Y1	Z1	X2	Y2	Z2	X3	Y3	Z3	X4	Y4	Z4	X5	Y5	Z5	X6	Y6	Z6	X7	Y7	Z7	X8	Y8	Z8	X9	Y9	Z9	X10	Y10	Z10	X11	Y11	Z11	X12	Y12	Z12	X13	Y13	Z13	X14	Y14	Z14	X15	Y15	Z15	X16	Y16	Z16	X17	Y17	Z17	X18	Y18	Z18	X19	Y19	Z19	X20	Y20	Z20	X21	Y21	Z21
0	0.0	-0.09371009826660157	-0.08997119903564453	0.945572021484375	-0.07505509948730468	-0.08374289703369141	0.9592969970703125	-0.07330789947509765	-0.07338300323486328	0.9893599853515626	-0.09142960357666016	-0.0505432014465332	1.0070499877929688	-0.04934320068359375	-0.16731199645996095	0.9494219970703125	-0.05692190170288086	-0.150072998046875	0.9638109741210937	-0.06510880279541016	-0.1356820068359375	0.97839501953125	-0.07908689880371093	-0.10821099853515626	0.9979390258789063	-0.08348970031738281	-0.08915699768066407	0.97139697265625	-0.07983180236816406	-0.10426100158691406	0.9575709838867188	-0.08627700042724609	-0.12825300598144532	0.9660170288085937	-0.10264299774169922	-0.11212000274658203	1.0014400024414063	-0.09668840026855469	-0.08903359985351562	0.9594760131835938	-0.0981884994506836	-0.1045459976196289	0.95097998046875	-0.11019100189208984	-0.126052001953125	0.9633289794921875	-0.11843499755859375	-0.10469999694824218	0.9933599853515624	-0.14277900695800783	-0.14230400085449219	0.9383740234375	-0.13987699890136718	-0.12590599822998047	0.95327001953125	-0.13814799499511718	-0.11339700317382813	0.9660490112304687	-0.13120700073242186	-0.08988379669189453	0.98131298828125	-0.11719599914550781	-0.04315850067138672	1.034050048828125
1	0.03333333333333333	-0.09343820190429687	-0.08957109832763673	0.9467059936523438	-0.0740906982421875	-0.08238539886474609	0.9617689819335937	-0.07366850280761719	-0.07151540374755859	0.9898410034179688	-0.09254350280761718	-0.05083319854736328	1.0076500244140625	-0.049025699615478514	-0.16625999450683593	0.9482130126953126	-0.05645840072631836	-0.15075399780273438	0.9636790161132812	-0.06491570281982421	-0.13651300048828124	0.9790809936523438	-0.07988339996337891	-0.1095989990234375	1.0013200073242188	-0.08313780212402344	-0.08973380279541016	0.9727969970703125	-0.07957350158691406	-0.10396700286865235	0.9586589965820312	-0.08609200286865235	-0.12777899932861328	0.9664110107421875	-0.1031259994506836	-0.11331999969482422	1.00227001953125	-0.09620829772949219	-0.08823760223388671	0.9597219848632812	-0.09895709991455078	-0.10452400207519531	0.953364990234375	-0.10970999908447265	-0.12466100311279296	0.963010986328125	-0.11864900207519531	-0.10499700164794921	0.9917260131835938	-0.14203399658203125	-0.14175900268554686	0.9389840087890625	-0.1399770050048828	-0.1266070022583008	0.9533880004882812	-0.13716200256347658	-0.11414199829101562	0.9659920043945313	-0.13006199645996094	-0.09079340362548828	0.9811589965820312	-0.118427001953125	-0.04380759811401367	1.034199951171875
2	0.06666666666666667	-0.09350479888916016	-0.08937259674072266	0.9465469970703125	-0.07431199645996094	-0.08218379974365235	0.9617030029296875	-0.07355770111083984	-0.0715782012939453	0.9897020263671875	-0.0925447006225586	-0.050849899291992184	1.0076099853515625	-0.049008201599121094	-0.16606300354003906	0.9478309936523438	-0.05649079895019531	-0.1505260009765625	0.9634080200195313	-0.06489360046386719	-0.13630599975585939	0.978802001953125	-0.07970429992675782	-0.10954900360107422	1.00097998046875	-0.08330319976806641	-0.08939250183105468	0.9727730102539063	-0.0796321029663086	-0.10378500366210938	0.9584420166015625	-0.08614199829101563	-0.12760800170898437	0.9661840209960938	-0.10318000030517578	-0.11328299713134765	1.0022899780273438	-0.09638200378417969	-0.08809120178222657	0.95977001953125	-0.09912699890136718	-0.10450199890136719	0.952780029296875	-0.10972799682617188	-0.12453500366210937	0.9628610229492187	-0.11854100036621094	-0.10511799621582031	0.9916329956054688	-0.1422010040283203	-0.14160699462890625	0.938885986328125	-0.13986599731445312	-0.1266510009765625	0.9533939819335937	-0.137302001953125	-0.11404499816894531	0.966052978515625	-0.12971000671386718	-0.09086620330810546	0.9810260009765625	-0.11857499694824218	-0.04374020004272461	1.034199951171875
3	0.1	-0.09338870239257813	-0.08936920166015624	0.9465079956054687	-0.07436679840087891	-0.08221849822998047	0.9615770263671874	-0.07365299987792968	-0.07148780059814454	0.9897020263671875	-0.0927593994140625	-0.05075279998779297	1.0078300170898438	-0.049	-0.1659720001220703	0.9477949829101563	-0.05643529891967773	-0.15049099731445312	0.9633389892578125	-0.06490350341796874	-0.13626300048828124	0.978822021484375	-0.07979229736328125	-0.10945899963378906	1.0010900268554688	-0.0834280014038086	-0.08964219665527344	0.9732650146484375	-0.07970909881591796	-0.10380300140380859	0.9582230224609375	-0.08612539672851563	-0.12758100128173827	0.9661859741210937	-0.10315499877929687	-0.11324600219726562	1.0023099975585938	-0.09634040069580078	-0.08810990142822266	0.9598209838867188	-0.0991541976928711	-0.10460600280761718	0.9527570190429687	-0.10975800323486327	-0.12450800323486329	0.9628660278320312	-0.11859600067138672	-0.10512000274658204	0.991718017578125	-0.14238499450683595	-0.14158099365234375	0.938947021484375	-0.14015699768066406	-0.12653399658203124	0.9534600219726562	-0.1373710021972656	-0.11404199981689453	0.9661190185546875	-0.13005599975585938	-0.09080919647216797	0.9811019897460938	-0.11853099822998046	-0.043891101837158206	1.0341199951171876
4	0.13333333333333333	-0.09324400329589844	-0.08949710083007813	0.946635009765625	-0.0741053009033203	-0.08234149932861329	0.961802978515625	-0.07355229949951173	-0.07161979675292969	0.9899530029296875	-0.09255380249023437	-0.051036800384521484	1.0079299926757812	-0.048693801879882814	-0.166072998046875	0.94806201171875	-0.05616139984130859	-0.15058399963378907	0.9635859985351563	-0.06466950225830079	-0.13633099365234375	0.9790399780273438	-0.07961139678955079	-0.10961399841308593	1.0014000244140624	-0.08317790222167969	-0.08969090270996094	0.9727730102539063	-0.07939869689941406	-0.10381400299072266	0.9587949829101563	-0.08591719818115234	-0.12768599700927735	0.9664420166015625	-0.1030770034790039	-0.11336799621582032	1.0025	-0.0962677001953125	-0.08816320037841797	0.959885986328125	-0.0990458984375	-0.10473600006103516	0.9530390014648438	-0.10960700225830078	-0.12471299743652343	0.9632579956054688	-0.11849800109863282	-0.10518299865722656	0.99177001953125	-0.14222999572753905	-0.14198399353027344	0.9393099975585938	-0.13999099731445314	-0.12680000305175781	0.9538930053710938	-0.13724600219726563	-0.11426399993896484	0.96627099609375	-0.12986099243164062	-0.09096070098876953	0.9815430297851563	-0.11858599853515625	-0.04397740173339844	1.03477001953125
5	0.16666666666666666	-0.09299510192871094	-0.08989299774169922	0.9471630249023437	-0.07387850189208985	-0.08261229705810547	0.9624500122070313	-0.07345809936523437	-0.07178269958496093	0.9904509887695313	-0.09236540222167969	-0.05137020111083984	1.008219970703125	-0.04809609985351562	-0.16650999450683593	0.9488480224609375	-0.055612899780273437	-0.1509530029296875	0.9642750244140625	-0.06416329956054688	-0.1367239990234375	0.979656005859375	-0.07919309997558593	-0.10999099731445312	1.00172998046875	-0.08267449951171875	-0.09009030151367188	0.9733060302734375	-0.07901309967041016	-0.10418199920654297	0.9592769775390625	-0.0853583984375	-0.1279540023803711	0.9668720092773437	-0.10255500030517578	-0.11381800079345702	1.0029199829101563	-0.09597799682617188	-0.08874800109863282	0.9606160278320313	-0.09861699676513672	-0.10509300231933594	0.9534650268554687	-0.10919499969482421	-0.12522100067138672	0.963708984375	-0.11794999694824218	-0.1057030029296875	0.992197021484375	-0.14162600708007814	-0.14269700622558593	0.9399509887695312	-0.1393209991455078	-0.12747100067138672	0.9541480102539063	-0.13694400024414063	-0.11490000152587891	0.9670460205078125	-0.1297830047607422	-0.09150869750976562	0.9818599853515625	-0.11822699737548828	-0.04469089889526367	1.0346700439453125
6	0.2	-0.09256269836425782	-0.09019200134277344	0.9474349975585937	-0.0735071029663086	-0.08291549682617187	0.9627150268554687	-0.07313919830322266	-0.07203489685058594	0.9909180297851562	-0.09212419891357422	-0.051710800170898436	1.0085900268554688	-0.04752259826660156	-0.1670050048828125	0.9493480224609375	-0.055082500457763674	-0.15133299255371094	0.9647579956054687	-0.0636781005859375	-0.13713800048828126	0.980052978515625	-0.07881549835205078	-0.11038400268554688	1.0021099853515625	-0.08224880218505859	-0.09010330200195313	0.9741810302734375	-0.07850460052490234	-0.10444599914550781	0.9596300048828125	-0.08483799743652344	-0.12819500732421876	0.9672470092773438	-0.10226300048828126	-0.11419100189208985	1.0033699951171875	-0.09548600006103515	-0.08906870269775391	0.9606270141601563	-0.09815570068359375	-0.105375	0.9537360229492188	-0.10873999786376953	-0.12558399963378905	0.9641209716796875	-0.11769699859619141	-0.10601300048828124	0.992927001953125	-0.14116099548339844	-0.1432050018310547	0.94035498046875	-0.13903500366210939	-0.12800799560546874	0.9547009887695312	-0.1363240051269531	-0.1153679962158203	0.9671129760742188	-0.12934800720214842	-0.09190299987792969	0.9823800048828125	-0.11788899993896484	-0.04500360107421875	1.0350899658203125
7	0.23333333333333334	-0.09221070098876953	-0.09005699920654296	0.9474000244140625	-0.07315239715576172	-0.08277999877929687	0.9627979736328125	-0.07261170196533204	-0.07236299896240235	0.99089697265625	-0.09183699798583984	-0.05182929992675781	1.008719970703125	-0.04733509826660156	-0.16700300598144532	0.9491320190429687	-0.0549015007019043	-0.15144999694824218	0.964531005859375	-0.06352610015869141	-0.13718699645996094	0.9798670043945312	-0.07862740325927735	-0.11044000244140625	1.0020700073242188	-0.08205010223388672	-0.09011229705810547	0.9737880249023437	-0.07822760009765625	-0.10433699798583984	0.959468994140625	-0.08462329864501954	-0.12813299560546876	0.9670540161132812	-0.10208699798583984	-0.11422100067138671	1.0030999755859376	-0.09521299743652344	-0.08890599822998047	0.9610889892578125	-0.09793119812011719	-0.10529399871826171	0.9540170288085937	-0.10853399658203125	-0.12538200378417969	0.9638289794921875	-0.11735399627685547	-0.10598300170898438	0.992656982421875	-0.14096600341796875	-0.1430820007324219	0.940072021484375	-0.13871800231933593	-0.12788400268554687	0.9542559814453125	-0.13608200073242188	-0.11526499938964843	0.9669550170898438	-0.1291529998779297	-0.0917656021118164	0.9822670288085937	-0.1177979965209961	-0.04493370056152344	1.035449951171875
8	0.26666666666666666	-0.0920811004638672	-0.08952580261230468	0.9469500122070312	-0.07302010345458984	-0.08242479705810547	0.9622869873046875	-0.07270860290527344	-0.07177459716796875	0.9906209716796875	-0.09171859741210937	-0.051570201873779295	1.008510009765625	-0.04722209930419922	-0.16674200439453124	0.9484840087890625	-0.05477740097045898	-0.1510760040283203	0.9639580078125	-0.06336740112304687	-0.13683099365234375	0.9792899780273437	-0.07838770294189454	-0.11010900115966797	1.0013300170898438	-0.08170480346679687	-0.0898373031616211	0.9730360107421875	-0.07816699981689453	-0.10384400177001953	0.9588820190429688	-0.08449929809570313	-0.12767800140380858	0.9664299926757812	-0.10188500213623047	-0.11401100158691406	1.00275	-0.09503810119628907	-0.08841310119628906	0.9604970092773437	-0.09778730010986328	-0.10486000061035156	0.9531790161132813	-0.1084280014038086	-0.12500299835205078	0.9633079833984375	-0.1172969970703125	-0.10563700103759766	0.9925170288085937	-0.14089399719238282	-0.14265499877929688	0.9396300048828125	-0.13866999816894532	-0.12744300079345702	0.9539829711914063	-0.13574600219726562	-0.11488700103759765	0.96672998046875	-0.12904600524902343	-0.0914977035522461	0.9819530029296875	-0.11752899932861328	-0.04506919860839844	1.0349000244140625
